<?xml version="1.0" standalone="no"?>
<!DOCTYPE svg PUBLIC "-//W3C//DTD SVG 20010904//EN"
 "http://www.w3.org/TR/2001/REC-SVG-20010904/DTD/svg10.dtd">
<svg version="1.0" xmlns="http://www.w3.org/2000/svg"
 width="1544.000000pt" height="825.000000pt" viewBox="0 0 1544.000000 825.000000"
 preserveAspectRatio="xMidYMid meet">

<g transform="translate(0.000000,825.000000) scale(0.100000,-0.100000)"
fill="#ffffff" stroke="none">
<path d="M3532 5372 c10 -25 8 -42 -11 -104 -13 -40 -45 -147 -71 -238 -26
-91 -66 -223 -88 -293 -23 -71 -38 -135 -35 -143 6 -16 43 -34 69 -34 8 0 14
9 14 21 0 24 14 77 77 279 72 235 133 450 133 469 0 29 -32 60 -67 67 l-32 6
11 -30z"/>
<path d="M5290 5351 c0 -50 -20 -126 -108 -416 -63 -206 -140 -464 -202 -675
-32 -107 -70 -233 -84 -280 -15 -47 -38 -123 -51 -170 -13 -47 -37 -130 -55
-185 -17 -55 -51 -170 -76 -255 -87 -300 -114 -379 -140 -409 l-26 -31 34 0
c58 0 93 31 116 102 27 84 112 363 158 518 99 337 161 546 264 885 61 204 122
409 135 456 13 48 33 113 44 145 48 146 81 264 81 291 0 34 -22 58 -62 68 -28
7 -28 7 -28 -44z"/>
<path d="M7934 5343 c-1 -41 -18 -112 -62 -248 -33 -104 -67 -217 -76 -250 -8
-33 -36 -125 -61 -205 -26 -80 -57 -185 -70 -235 -13 -49 -35 -124 -48 -165
-14 -41 -41 -129 -61 -195 -19 -66 -61 -203 -92 -305 -31 -102 -67 -223 -80
-270 -12 -47 -37 -130 -54 -185 -17 -55 -45 -145 -61 -200 -20 -64 -40 -110
-57 -127 l-26 -28 40 0 c80 0 90 14 149 215 14 50 46 153 70 230 24 77 49 160
55 185 6 25 38 131 70 235 32 105 67 222 78 260 22 81 108 370 157 530 89 290
115 376 136 450 12 44 35 120 51 168 42 133 36 175 -32 192 -24 6 -25 5 -26
-52z"/>
<path d="M10577 5362 c4 -29 -8 -81 -45 -203 -28 -90 -65 -215 -83 -278 -23
-80 -41 -124 -61 -147 -15 -17 -28 -34 -28 -38 0 -3 16 -6 35 -6 26 0 44 8 69
33 28 26 41 53 70 147 80 264 126 432 126 460 0 31 -39 70 -70 70 -15 0 -17
-6 -13 -38z"/>
<path d="M11457 5363 c4 -30 -8 -82 -47 -209 -100 -328 -160 -547 -155 -564
10 -30 75 -41 75 -12 0 9 14 62 31 117 17 55 53 177 80 270 27 94 63 211 79
262 37 115 28 150 -42 168 -26 7 -26 6 -21 -32z"/>
<path d="M13217 5363 c5 -38 -12 -103 -124 -468 -25 -82 -62 -208 -83 -280
-60 -201 -146 -489 -215 -720 -35 -115 -73 -244 -85 -285 -12 -41 -43 -145
-70 -230 -26 -85 -63 -207 -81 -270 -23 -80 -42 -124 -62 -147 l-29 -33 41 0
c31 0 48 7 70 28 33 32 44 60 109 287 62 214 289 974 347 1160 24 77 60 199
80 270 20 72 49 171 65 220 59 182 120 404 120 433 0 33 -38 72 -70 72 -15 0
-17 -6 -13 -37z"/>
<path d="M2857 5363 c-17 -19 -57 -140 -117 -348 -20 -71 -62 -213 -93 -315
-93 -306 -276 -918 -309 -1030 -16 -58 -47 -159 -67 -225 -92 -296 -126 -425
-115 -443 10 -15 40 -17 294 -20 236 -2 287 0 306 12 24 17 22 10 164 491 46
154 92 295 103 314 36 61 38 61 558 61 l471 0 34 -34 c21 -21 34 -44 34 -60 0
-24 -20 -95 -161 -565 -53 -177 -57 -206 -33 -215 9 -3 141 -6 294 -6 250 0
280 2 299 18 21 17 42 80 141 417 21 72 96 319 165 550 70 231 137 458 150
505 13 47 39 135 59 195 19 61 48 157 64 215 16 58 50 172 76 253 59 189 66
223 53 236 -7 7 -106 11 -297 11 -240 0 -289 -2 -307 -15 -15 -10 -30 -41 -43
-88 -12 -40 -53 -178 -92 -307 -38 -129 -81 -271 -94 -316 -24 -83 -56 -127
-102 -145 -13 -5 -235 -9 -493 -9 l-471 0 -28 29 c-50 49 -49 60 33 334 137
458 142 477 130 495 -9 15 -43 17 -300 20 -266 2 -291 1 -306 -15z"/>
<path d="M5498 5355 c-19 -19 -37 -64 -66 -168 -22 -78 -91 -308 -152 -512
-62 -203 -121 -401 -132 -440 -12 -38 -41 -137 -66 -220 -25 -82 -60 -204 -79
-270 -19 -66 -55 -183 -79 -260 -55 -179 -114 -378 -127 -432 -18 -74 -24 -73
298 -73 l283 0 24 29 c22 26 50 115 154 487 7 28 23 63 35 78 45 57 38 56 543
56 499 0 505 -1 532 -51 22 -43 18 -73 -37 -260 -74 -250 -82 -285 -75 -314
l6 -25 289 0 c345 0 327 -6 361 122 12 46 48 169 80 273 32 105 72 237 88 295
57 196 122 414 187 625 63 208 114 379 182 610 20 66 57 191 84 279 37 120 46
163 38 177 -9 18 -45 19 -1178 19 l-1168 0 -25 -25z m1205 -272 c24 -104 30
-173 17 -227 -10 -45 -9 -51 12 -73 16 -17 23 -39 26 -83 4 -53 0 -67 -36
-142 -24 -50 -72 -121 -119 -178 -121 -147 -168 -211 -209 -284 l-37 -68 -34
64 c-90 166 -153 297 -164 341 -15 61 -1 112 43 159 26 27 33 45 39 95 5 34
15 76 24 93 21 41 88 105 144 138 84 48 196 139 231 186 19 25 38 46 41 46 3
0 13 -30 22 -67z"/>
<path d="M8141 5363 c-15 -13 -33 -59 -60 -154 -21 -74 -62 -209 -89 -300 -88
-283 -154 -501 -178 -589 -21 -78 -34 -122 -105 -348 -17 -55 -20 -78 -12 -90
9 -16 82 -17 834 -22 453 -3 825 -6 827 -8 16 -14 42 -74 42 -97 0 -37 -30
-88 -67 -112 -25 -17 -79 -18 -870 -23 -816 -5 -843 -6 -856 -24 -14 -20 -48
-123 -133 -414 -36 -124 -45 -168 -37 -180 9 -16 104 -17 1176 -20 l1166 -2
25 22 c24 22 61 135 197 608 17 58 57 191 89 295 33 105 70 233 84 285 14 52
37 128 51 169 28 83 31 111 13 129 -9 9 -203 12 -812 12 -776 0 -802 1 -833
20 -68 41 -57 153 19 200 32 20 48 20 855 20 512 0 831 4 847 10 31 11 34 18
80 170 102 341 124 425 115 442 -9 17 -69 18 -1178 18 -1098 0 -1170 -1 -1190
-17z"/>
<path d="M10783 5363 c-20 -17 -62 -145 -165 -503 -21 -74 -58 -198 -83 -275
-24 -77 -53 -176 -65 -220 -12 -44 -37 -128 -56 -187 -18 -59 -52 -169 -73
-245 -22 -76 -56 -190 -76 -253 -20 -63 -50 -162 -66 -220 -17 -58 -53 -179
-81 -269 -41 -135 -48 -167 -39 -187 l11 -24 288 0 c286 0 289 0 309 23 20 21
33 62 169 527 69 238 78 261 115 296 l30 29 496 0 495 0 19 -24 c41 -50 36
-88 -38 -326 -99 -318 -143 -486 -133 -505 10 -19 23 -20 295 -20 280 0 284 0
309 23 20 18 47 97 146 432 67 226 140 469 162 540 22 72 60 198 83 280 24 83
96 323 160 535 169 561 166 549 154 571 -9 18 -26 19 -298 19 -285 0 -288 0
-308 -22 -22 -25 -42 -81 -102 -288 -69 -242 -141 -471 -157 -501 -8 -16 -29
-39 -47 -49 -31 -19 -53 -20 -502 -20 -448 0 -471 1 -502 20 -50 30 -57 73
-27 173 14 45 41 136 60 202 19 66 58 194 86 284 36 119 48 169 41 180 -9 14
-51 16 -300 19 -266 2 -292 1 -310 -15z"/>
<path d="M8635 4655 c-14 -13 -25 -33 -25 -44 0 -23 35 -51 65 -51 16 0 20 7
21 35 0 22 9 44 24 60 l23 25 -42 0 c-31 0 -48 -6 -66 -25z"/>
<path d="M10317 4477 c3 -24 -11 -84 -50 -208 -54 -172 -126 -409 -194 -644
-19 -66 -61 -205 -94 -310 -32 -104 -63 -212 -70 -240 -15 -62 -33 -98 -61
-125 l-22 -20 31 0 c51 0 89 19 107 53 9 18 32 86 50 152 19 66 53 181 76 255
23 74 57 189 76 255 19 66 54 183 78 260 24 77 58 190 75 250 17 61 42 143 56
184 14 41 25 86 25 101 0 39 -26 70 -60 70 -27 0 -28 -2 -23 -33z"/>
<path d="M3104 3786 c-35 -16 -37 -20 -99 -239 -20 -71 -40 -139 -45 -153 -5
-13 -35 -110 -65 -216 -43 -147 -63 -200 -83 -222 l-27 -29 50 6 c36 4 55 12
70 29 12 14 40 87 63 164 181 607 191 638 214 656 l23 18 -35 -1 c-19 0 -49
-6 -66 -13z"/>
<path d="M11035 3790 c-40 -16 -32 8 -250 -724 -15 -49 -34 -89 -52 -108 l-28
-30 52 4 c63 6 85 28 108 108 9 30 43 143 75 250 32 107 76 254 96 325 28 96
45 137 65 158 l27 27 -36 -1 c-20 0 -46 -4 -57 -9z"/>
<path d="M5669 3555 c-33 -18 -47 -52 -103 -261 -72 -266 -86 -306 -117 -336
l-27 -28 36 0 c20 0 51 9 68 19 34 21 54 73 119 316 57 211 69 246 92 271 12
14 23 27 23 30 0 10 -67 2 -91 -11z"/>
</g>
</svg>
